<svg width="30" height="30" viewBox="0 0 30 30" fill="none" xmlns="http://www.w3.org/2000/svg">
<path d="M18.8638 19.9963C27.0775 19.955 30 15.605 30 11.875C30 9.77875 28.5163 8.025 26.545 7.60125C26.715 7.1175 26.8625 6.67375 26.9625 6.3375C27.4037 4.84625 27.1175 3.27 26.1788 2.01375C25.2213 0.735 23.7575 0 22.1613 0H7.83875C6.2425 0 4.7775 0.735 3.82 2.015C2.88125 3.27125 2.59625 4.8475 3.0375 6.3375C3.1375 6.67375 3.28375 7.1175 3.455 7.60125C1.48375 8.025 0 9.77875 0 11.875C0 15.605 2.92375 19.955 11.1363 19.9963C11.2063 20.3737 11.25 20.7588 11.25 21.15V25C11.25 27.2825 9.33 27.49 8.75 27.5H7.5C6.80875 27.5 6.25 28.0588 6.25 28.75C6.25 29.4412 6.80875 30 7.5 30H22.5C23.1912 30 23.75 29.4412 23.75 28.75C23.75 28.0588 23.1912 27.5 22.5 27.5H21.26C20.67 27.49 18.75 27.2825 18.75 25V21.15C18.75 20.7588 18.7937 20.3737 18.8638 19.9963ZM25.625 10C26.6588 10 27.5 10.8413 27.5 11.875C27.5 14.4175 25.4888 17.1213 19.955 17.4625C20.2312 17.0888 20.5475 16.7425 20.9075 16.4363C23.0812 14.5887 24.5737 12.12 25.5662 9.9875C25.5875 9.9875 25.6038 10 25.625 10ZM2.5 11.875C2.5 10.8413 3.34125 10 4.375 10C4.39625 10 4.41375 9.98875 4.43375 9.9875C5.42625 12.12 6.9175 14.5875 9.0925 16.4363C9.4525 16.7425 9.76875 17.0875 10.045 17.4625C4.51125 17.1213 2.5 14.4175 2.5 11.875ZM13.1412 27.5C13.51 26.8237 13.75 26.0075 13.75 25V21.15C13.75 18.5863 12.6425 16.175 10.7113 14.5325C8.5 12.6525 6.5275 9.32375 5.435 5.63C5.22 4.90125 5.36 4.13 5.82375 3.5125C6.30375 2.86875 7.03875 2.5 7.83875 2.5H22.16C22.96 2.5 23.695 2.86875 24.175 3.51125C24.6362 4.13 24.7775 4.90125 24.5637 5.62875C23.47 9.325 21.4975 12.6525 19.2875 14.5325C17.3563 16.1737 16.2487 18.5863 16.2487 21.15V25C16.2487 26.0075 16.4875 26.8237 16.8575 27.5H13.1412ZM12.2388 12.2037C11.9088 11.9762 11.77 11.5562 11.9012 11.1763L12.55 9.16875L10.8425 7.91875C10.4338 7.61875 10.345 7.045 10.645 6.63625C10.8175 6.40125 11.0925 6.26125 11.3838 6.26125H13.485L14.1237 4.27C14.285 3.78625 14.8075 3.52625 15.2913 3.6875C15.5662 3.77875 15.7825 3.995 15.8738 4.27L16.5112 6.26125H18.6125C19.1187 6.26125 19.53 6.67125 19.53 7.17875C19.53 7.4725 19.39 7.7475 19.1537 7.92L17.4462 9.17L18.095 11.1775C18.25 11.66 17.985 12.1775 17.5013 12.3337C17.2213 12.4237 16.915 12.3738 16.6775 12.2L14.9987 10.965L13.3187 12.1987C12.9987 12.4375 12.5613 12.4387 12.2388 12.2037Z" fill="black"/>
</svg>
