<svg width="36" height="44" viewBox="0 0 36 44" fill="none" xmlns="http://www.w3.org/2000/svg">
<path d="M21.2755 44C20.9213 44 20.5767 43.8713 20.2934 43.6333L13.7458 38.1333C13.5425 37.9626 13.3775 37.7411 13.2639 37.4866C13.1502 37.232 13.0911 36.9513 13.0911 36.6667V26.3633L1.60667 11.8928C0.791041 10.8623 0.258495 9.58983 0.0730364 8.22843C-0.112422 6.86703 0.0571 5.47461 0.561227 4.21852C1.06535 2.96244 1.88263 1.89614 2.91484 1.14779C3.94704 0.399433 5.15024 0.000869768 6.37983 0L29.6236 0C30.8531 0.00161526 32.056 0.400839 33.0878 1.1497C34.1196 1.89855 34.9363 2.96518 35.4399 4.22141C35.9435 5.47763 36.1125 6.87 35.9266 8.2312C35.7407 9.5924 35.2078 10.8645 34.3919 11.8947L22.9124 26.3633V42.1667C22.9124 42.6529 22.7399 43.1192 22.433 43.463C22.126 43.8068 21.7096 44 21.2755 44ZM16.3648 35.75L19.6386 38.5V25.6667C19.6389 25.2178 19.7863 24.7846 20.0527 24.4493L31.9496 9.45817C32.3463 8.95598 32.6052 8.33624 32.6951 7.67333C32.7851 7.01042 32.7023 6.33252 32.4567 5.72102C32.2111 5.10952 31.8131 4.5904 31.3106 4.226C30.8081 3.86159 30.2223 3.66737 29.6236 3.66667H6.37983C5.78147 3.66768 5.19607 3.862 4.69384 4.22632C4.19162 4.59064 3.79389 5.10949 3.54836 5.72064C3.30282 6.3318 3.21991 7.00931 3.30957 7.67191C3.39922 8.33452 3.65764 8.9541 4.05382 9.45633L15.9523 24.4493C16.2182 24.7849 16.365 25.218 16.3648 25.6667V35.75Z" fill="#03007C"/>
</svg>
