<svg width="30" height="30" viewBox="0 0 30 30" fill="none" xmlns="http://www.w3.org/2000/svg">
<path d="M13.75 13.75H0V3.75C0 2.75544 0.395088 1.80161 1.09835 1.09835C1.80161 0.395088 2.75544 0 3.75 0L13.75 0V13.75ZM2.5 11.25H11.25V2.5H3.75C3.41848 2.5 3.10054 2.6317 2.86612 2.86612C2.6317 3.10054 2.5 3.41848 2.5 3.75V11.25Z" fill="black"/>
<path d="M30 13.75H16.25V-7.62939e-06H26.25C27.2446 -7.62939e-06 28.1984 0.395081 28.9017 1.09834C29.6049 1.8016 30 2.75543 30 3.74999V13.75ZM18.75 11.25H27.5V3.74999C27.5 3.41847 27.3683 3.10053 27.1339 2.86611C26.8995 2.63169 26.5815 2.49999 26.25 2.49999H18.75V11.25Z" fill="black"/>
<path d="M13.75 30H3.75C2.75544 30 1.80161 29.6049 1.09835 28.9017C0.395088 28.1984 0 27.2446 0 26.25L0 16.25H13.75V30ZM2.5 18.75V26.25C2.5 26.5815 2.6317 26.8995 2.86612 27.1339C3.10054 27.3683 3.41848 27.5 3.75 27.5H11.25V18.75H2.5Z" fill="black"/>
<path d="M26.25 30H16.25V16.25H30V26.25C30 27.2446 29.6049 28.1984 28.9017 28.9017C28.1984 29.6049 27.2446 30 26.25 30ZM18.75 27.5H26.25C26.5815 27.5 26.8995 27.3683 27.1339 27.1339C27.3683 26.8995 27.5 26.5815 27.5 26.25V18.75H18.75V27.5Z" fill="black"/>
</svg>
