<svg width="34" height="27" viewBox="0 0 34 27" fill="none" xmlns="http://www.w3.org/2000/svg">
<path d="M22.6564 17.3381L7.56125 26.3481C7.50363 26.3826 7.4401 26.4052 7.37431 26.4146C7.30852 26.424 7.24175 26.42 7.17783 26.4029C7.11391 26.3858 7.0541 26.3558 7.00183 26.3148C6.94955 26.2738 6.90583 26.2224 6.87317 26.1637L0.579389 14.8883C0.546598 14.8297 0.525498 14.7648 0.517299 14.6974C0.509099 14.63 0.513959 14.5614 0.531603 14.4956C0.549246 14.4297 0.579326 14.3679 0.620121 14.3137C0.660916 14.2594 0.711627 14.2138 0.769352 14.1794L15.8645 5.16935C15.9221 5.13462 15.9856 5.11185 16.0515 5.10239C16.1174 5.09292 16.1843 5.09694 16.2483 5.11421L21.0194 6.39262C23.8312 2.45781 26.5374 0.792419 28.7177 0.498903C30.7899 0.219714 32.4097 1.13835 33.2733 2.55653C34.1313 3.96572 34.2296 5.86722 33.2678 7.56556C32.1035 9.62216 29.3708 11.3776 24.5312 11.4777C24.4136 11.48 24.304 11.4481 24.21 11.3922L22.8963 17.0062C22.8625 17.1507 22.7722 17.267 22.6555 17.3366L22.6564 17.3381ZM22.3012 6.73609L24.6529 7.36623C24.9223 7.4384 25.0797 7.72133 25.0056 7.998C25.0032 8.00678 25.0009 8.01555 24.9981 8.02359L24.4873 10.207L24.5257 10.2048C28.8455 10.1153 31.2262 8.65295 32.195 6.94206C32.9115 5.67705 32.8453 4.27189 32.2164 3.23946C31.593 2.21602 30.4018 1.55454 28.8608 1.7623C27.0375 2.00789 24.7534 3.42087 22.3012 6.73609ZM21.399 10.2215C21.444 10.3169 21.4665 10.4239 21.459 10.536C21.4741 10.7137 21.4597 10.8973 21.4108 11.0798C21.3007 11.4904 21.0391 11.819 20.7056 12.0181C20.3722 12.2171 19.9661 12.287 19.5673 12.1801C19.1684 12.0732 18.8523 11.8099 18.663 11.4708C18.5655 11.2968 18.5028 11.1043 18.4785 10.9044C18.4542 10.7044 18.4688 10.5009 18.5215 10.3056C18.6138 9.96108 18.8126 9.6739 19.0716 9.4731C19.5142 8.68953 19.9556 7.96709 20.396 7.30079L16.1812 6.17143L1.70734 14.8106L7.50187 25.1924L21.9692 16.5571L23.9148 8.24365L21.6608 7.63969C21.3128 8.15207 20.9622 8.70386 20.6089 9.29507C20.8932 9.42955 21.1207 9.64851 21.2693 9.91463C21.323 10.0118 21.3668 10.1144 21.399 10.2215Z" fill="black"/>
</svg>
