<svg width="30" height="30" viewBox="0 0 30 30" fill="none" xmlns="http://www.w3.org/2000/svg">
<path d="M22.9849 1.16743L6.92811 17.2475C6.31484 17.8583 5.82865 18.5849 5.49769 19.3852C5.16674 20.1855 4.99758 21.0436 5.00003 21.9098V23.6811C5.00003 24.0309 5.13878 24.3663 5.38577 24.6137C5.63275 24.861 5.96773 25 6.31702 25H8.08575C8.9507 25.0024 9.80755 24.833 10.6067 24.5016C11.4058 24.1701 12.1314 23.6833 12.7413 23.0691L28.7981 6.98906C29.5678 6.2164 30 5.1696 30 4.07824C30 2.98688 29.5678 1.94008 28.7981 1.16743C28.0154 0.41815 26.9743 0 25.8915 0C24.8087 0 23.7676 0.41815 22.9849 1.16743ZM26.9359 5.12413L10.8791 21.2042C10.1365 21.9433 9.13277 22.3594 8.08575 22.3622H7.63402V21.9098C7.63676 20.8613 8.05225 19.8561 8.79034 19.1124L24.8471 3.03235C25.1284 2.76324 25.5025 2.61307 25.8915 2.61307C26.2806 2.61307 26.6546 2.76324 26.9359 3.03235C27.2124 3.31 27.3677 3.68612 27.3677 4.07824C27.3677 4.47036 27.2124 4.84648 26.9359 5.12413Z" fill="black"/>
<path d="M28.75 11.2237C28.4185 11.2237 28.1005 11.3554 27.8661 11.5899C27.6317 11.8243 27.5 12.1422 27.5 12.4737V18.75H22.5C21.5054 18.75 20.5516 19.1451 19.8483 19.8483C19.1451 20.5516 18.75 21.5054 18.75 22.5V27.5H6.25C5.25543 27.5 4.30161 27.1049 3.59835 26.4016C2.89509 25.6984 2.5 24.7445 2.5 23.75V6.24999C2.5 5.25543 2.89509 4.30161 3.59835 3.59835C4.30161 2.89509 5.25543 2.5 6.25 2.5H17.5525C17.884 2.5 18.202 2.3683 18.4364 2.13388C18.6708 1.89946 18.8025 1.58152 18.8025 1.25C18.8025 0.918479 18.6708 0.600536 18.4364 0.366116C18.202 0.131696 17.884 0 17.5525 0L6.25 0C4.593 0.00198482 3.00445 0.661102 1.83277 1.83277C0.661102 3.00444 0.00198482 4.593 0 6.24999L0 23.75C0.00198482 25.407 0.661102 26.9955 1.83277 28.1672C3.00445 29.3389 4.593 29.998 6.25 30H20.4287C21.2499 30.0023 22.0633 29.8418 22.822 29.5277C23.5807 29.2136 24.2696 28.7521 24.8487 28.17L28.1687 24.8475C28.7509 24.2686 29.2125 23.58 29.5269 22.8215C29.8412 22.063 30.002 21.2498 30 20.4287V12.4737C30 12.1422 29.8683 11.8243 29.6339 11.5899C29.3994 11.3554 29.0815 11.2237 28.75 11.2237ZM23.0812 26.4025C22.5788 26.9037 21.9433 27.2507 21.25 27.4025V22.5C21.25 22.1685 21.3817 21.8505 21.6161 21.6161C21.8505 21.3817 22.1685 21.25 22.5 21.25H27.4062C27.2516 21.9419 26.905 22.5761 26.4062 23.08L23.0812 26.4025Z" fill="black"/>
</svg>
