<svg width="30" height="30" viewBox="0 0 30 30" fill="none" xmlns="http://www.w3.org/2000/svg">
<path d="M26.875 4.99937H22.5V3.12461C22.5 1.40107 21.0987 0 19.375 0H3.125C1.4025 0 0 1.40107 0 3.12461V22.9396C0 23.6995 0.41625 24.3969 1.0875 24.7557C1.39375 24.9194 1.7275 24.9994 2.06125 24.9994C2.46 24.9994 2.8575 24.8831 3.2025 24.6544L7.5 21.7898V26.2467H21.6863L26.7987 29.655C27.1425 29.885 27.5412 30 27.94 30C28.2737 30 28.6075 29.92 28.9125 29.7563C29.5837 29.3963 30 28.7002 30 27.9403V8.12398C30 6.40045 28.5987 4.99937 26.875 4.99937ZM2.50875 23.6158C2.25625 23.7858 1.945 23.7995 1.6775 23.6545C1.41 23.5121 1.25 23.2446 1.25 22.9409V3.12461C1.25 2.09099 2.09125 1.24984 3.125 1.24984H19.375C20.4088 1.24984 21.25 2.09099 21.25 3.12461V19.9975H7.93625L2.50875 23.6158ZM28.75 27.9403C28.75 28.244 28.59 28.5114 28.3225 28.6539C28.0513 28.7989 27.745 28.7827 27.49 28.6152L22.0637 24.9969H8.75V21.2473H22.5V6.24922H26.875C27.9088 6.24922 28.75 7.09036 28.75 8.12398V27.9403ZM12.5 16.2492C12.5 16.9391 11.94 17.4991 11.25 17.4991C10.56 17.4991 10 16.9391 10 16.2492C10 15.5593 10.56 14.9994 11.25 14.9994C11.94 14.9994 12.5 15.5593 12.5 16.2492ZM8.75 7.50031H7.5C7.5 6.3892 7.98875 5.34183 8.83875 4.62817C9.69 3.91326 10.8137 3.61455 11.9237 3.81077C13.435 4.07574 14.675 5.31559 14.94 6.82665C15.22 8.4177 14.4637 10.01 13.0575 10.7862C12.4425 11.1249 11.8737 11.6423 11.8737 13.1246V13.7495H10.6237V13.1246C10.6237 11.4698 11.205 10.3787 12.4538 9.69129C13.4062 9.16635 13.8987 8.12648 13.7075 7.04287C13.5325 6.04049 12.71 5.2181 11.7062 5.04062C10.9525 4.91064 10.2175 5.10186 9.64125 5.58555C9.07375 6.06174 8.75 6.75915 8.75 7.50031Z" fill="black"/>
</svg>
