<svg width="18" height="22" viewBox="0 0 18 22" fill="none" xmlns="http://www.w3.org/2000/svg">
<path d="M10.6378 22C10.4607 22 10.2884 21.9357 10.1467 21.8167L6.87291 19.0667C6.77126 18.9813 6.68876 18.8706 6.63194 18.7433C6.57512 18.616 6.54553 18.4756 6.54553 18.3333V13.1817L0.803334 5.94642C0.395521 5.43114 0.129247 4.79491 0.0365182 4.11421C-0.0562109 3.43351 0.02855 2.7373 0.280613 2.10926C0.532677 1.48122 0.941317 0.948071 1.45742 0.573894C1.97352 0.199717 2.57512 0.000434884 3.18992 0L14.8118 0C15.4266 0.00080763 16.028 0.200419 16.5439 0.574848C17.0598 0.949276 17.4682 1.48259 17.72 2.1107C17.9718 2.73882 18.0563 3.435 17.9633 4.1156C17.8703 4.7962 17.6039 5.43226 17.1959 5.94733L11.4562 13.1817V21.0833C11.4562 21.3264 11.37 21.5596 11.2165 21.7315C11.063 21.9034 10.8548 22 10.6378 22ZM8.18242 17.875L9.81931 19.25V12.8333C9.81947 12.6089 9.89315 12.3923 10.0264 12.2247L15.9748 4.72908C16.1732 4.47799 16.3026 4.16812 16.3476 3.83666C16.3925 3.50521 16.3511 3.16626 16.2283 2.86051C16.1056 2.55476 15.9066 2.2952 15.6553 2.113C15.404 1.93079 15.1112 1.83369 14.8118 1.83333H3.18992C2.89073 1.83384 2.59804 1.931 2.34692 2.11316C2.09581 2.29532 1.89694 2.55474 1.77418 2.86032C1.65141 3.1659 1.60996 3.50465 1.65478 3.83596C1.69961 4.16726 1.82882 4.47705 2.02691 4.72817L7.97617 12.2247C8.1091 12.3925 8.18248 12.609 8.18242 12.8333V17.875Z" fill="black"/>
</svg>
