<svg width="50" height="40" viewBox="0 0 50 40" fill="none" xmlns="http://www.w3.org/2000/svg">
<path d="M46.875 16.4707H3.125C1.39912 16.4707 0 18.0509 0 20.0001C0 21.9493 1.39912 23.5295 3.125 23.5295H46.875C48.6009 23.5295 50 21.9493 50 20.0001C50 18.0509 48.6009 16.4707 46.875 16.4707Z" fill="black"/>
<path d="M3.125 7.05879H46.875C48.6009 7.05879 50 5.47862 50 3.5294C50 1.58018 48.6009 0 46.875 0H3.125C1.39912 0 0 1.58018 0 3.5294C0 5.47862 1.39912 7.05879 3.125 7.05879Z" fill="black"/>
<path d="M46.875 32.9412H3.125C1.39912 32.9412 0 34.5213 0 36.4706C0 38.4198 1.39912 40 3.125 40H46.875C48.6009 40 50 38.4198 50 36.4706C50 34.5213 48.6009 32.9412 46.875 32.9412Z" fill="black"/>
</svg>
