<svg width="20" height="15" viewBox="0 0 20 15" fill="none" xmlns="http://www.w3.org/2000/svg">
<path d="M19.389 5.73137C18.637 4.72318 17.6884 3.82261 16.5809 3.06541L18.9134 1.1558C19.0651 1.02717 19.1491 0.854897 19.1472 0.676078C19.1453 0.497259 19.0577 0.326204 18.9032 0.199754C18.7488 0.0733053 18.5398 0.00157967 18.3214 2.57815e-05C18.103 -0.00152811 17.8926 0.0672141 17.7355 0.191447L15.1989 2.27088C13.6265 1.50623 11.8288 1.10769 10 1.11829C4.84274 1.11829 1.90383 4.00862 0.610978 5.73137C0.211566 6.26027 0 6.8698 0 7.49162C0 8.11344 0.211566 8.72297 0.610978 9.25187C1.363 10.2601 2.31159 11.1606 3.4191 11.9178L1.08664 13.8274C1.00707 13.8904 0.943612 13.9656 0.899954 14.0488C0.856296 14.132 0.833316 14.2215 0.832354 14.3121C0.831393 14.4026 0.85247 14.4924 0.894355 14.5762C0.936241 14.6601 0.998095 14.7362 1.07631 14.8002C1.15453 14.8643 1.24753 14.9149 1.34991 14.9492C1.45229 14.9835 1.56198 15.0008 1.67259 15C1.78319 14.9992 1.8925 14.9804 1.99414 14.9446C2.09577 14.9089 2.18769 14.8569 2.26453 14.7918L4.80692 12.7103C6.3774 13.4748 8.1729 13.8741 10 13.8649C15.1573 13.8649 18.0962 10.9746 19.389 9.25187C19.7884 8.72297 20 8.11344 20 7.49162C20 6.8698 19.7884 6.26027 19.389 5.73137ZM2.03045 8.53781C1.79315 8.22344 1.66746 7.86118 1.66746 7.49162C1.66746 7.12206 1.79315 6.7598 2.03045 6.44543C3.14171 4.9682 5.65328 2.4823 10 2.4823C11.383 2.47596 12.7467 2.74885 13.9702 3.27683L12.2933 4.64971C11.4936 4.215 10.5347 4.02022 9.57952 4.09841C8.62431 4.1766 7.73156 4.52295 7.05276 5.07869C6.37396 5.63443 5.95091 6.36533 5.85541 7.14737C5.7599 7.9294 5.99782 8.71441 6.52879 9.36918L4.6045 10.9446C3.58413 10.2692 2.7134 9.45508 2.03045 8.53781ZM12.4991 7.49162C12.4991 8.03426 12.2358 8.55467 11.7671 8.93837C11.2984 9.32207 10.6628 9.53763 10 9.53763C9.6289 9.53646 9.26294 9.46651 8.92956 9.33303L12.2492 6.61524C12.4122 6.88818 12.4976 7.1878 12.4991 7.49162ZM7.50093 7.49162C7.50093 6.94898 7.76422 6.42857 8.23289 6.04487C8.70155 5.66117 9.3372 5.44561 10 5.44561C10.3711 5.44678 10.7371 5.51673 11.0704 5.65021L7.75083 8.368C7.5878 8.09506 7.50236 7.79544 7.50093 7.49162ZM17.9695 8.53781C16.8583 10.015 14.3467 12.5009 10 12.5009C8.61695 12.5073 7.25332 12.2344 6.0298 11.7064L7.70668 10.3335C8.50644 10.7682 9.46528 10.963 10.4205 10.8848C11.3757 10.8066 12.2684 10.4603 12.9472 9.90455C13.626 9.34881 14.0491 8.61791 14.1446 7.83587C14.2401 7.05384 14.0022 6.26883 13.4712 5.61406L15.3955 4.03863C16.4159 4.71401 17.2866 5.52816 17.9695 6.44543C18.2068 6.7598 18.3325 7.12206 18.3325 7.49162C18.3325 7.86118 18.2068 8.22344 17.9695 8.53781Z" fill="black"/>
</svg>
