<svg width="37" height="30" viewBox="0 0 37 30" fill="none" xmlns="http://www.w3.org/2000/svg">
<path d="M10.7917 5H35.4583C35.8672 5 36.2593 4.82441 36.5485 4.51185C36.8376 4.19929 37 3.77536 37 3.33333C37 2.89131 36.8376 2.46738 36.5485 2.15482C36.2593 1.84226 35.8672 1.66667 35.4583 1.66667H10.7917C10.3828 1.66667 9.99066 1.84226 9.70154 2.15482C9.41243 2.46738 9.25 2.89131 9.25 3.33333C9.25 3.77536 9.41243 4.19929 9.70154 4.51185C9.99066 4.82441 10.3828 5 10.7917 5Z" fill="black"/>
<path d="M35.4583 13.3333H10.7917C10.3828 13.3333 9.99066 13.5089 9.70154 13.8215C9.41243 14.1341 9.25 14.558 9.25 15C9.25 15.442 9.41243 15.866 9.70154 16.1785C9.99066 16.4911 10.3828 16.6667 10.7917 16.6667H35.4583C35.8672 16.6667 36.2593 16.4911 36.5485 16.1785C36.8376 15.866 37 15.442 37 15C37 14.558 36.8376 14.1341 36.5485 13.8215C36.2593 13.5089 35.8672 13.3333 35.4583 13.3333Z" fill="black"/>
<path d="M35.4583 25H10.7917C10.3828 25 9.99066 25.1756 9.70154 25.4882C9.41243 25.8007 9.25 26.2246 9.25 26.6667C9.25 27.1087 9.41243 27.5326 9.70154 27.8452C9.99066 28.1577 10.3828 28.3333 10.7917 28.3333H35.4583C35.8672 28.3333 36.2593 28.1577 36.5485 27.8452C36.8376 27.5326 37 27.1087 37 26.6667C37 26.2246 36.8376 25.8007 36.5485 25.4882C36.2593 25.1756 35.8672 25 35.4583 25Z" fill="black"/>
<path d="M3.08333 6.66667C4.78621 6.66667 6.16667 5.17428 6.16667 3.33333C6.16667 1.49238 4.78621 0 3.08333 0C1.38046 0 0 1.49238 0 3.33333C0 5.17428 1.38046 6.66667 3.08333 6.66667Z" fill="black"/>
<path d="M3.08333 18.3333C4.78621 18.3333 6.16667 16.841 6.16667 15C6.16667 13.1591 4.78621 11.6667 3.08333 11.6667C1.38046 11.6667 0 13.1591 0 15C0 16.841 1.38046 18.3333 3.08333 18.3333Z" fill="black"/>
<path d="M3.08333 30C4.78621 30 6.16667 28.5076 6.16667 26.6667C6.16667 24.8257 4.78621 23.3333 3.08333 23.3333C1.38046 23.3333 0 24.8257 0 26.6667C0 28.5076 1.38046 30 3.08333 30Z" fill="black"/>
</svg>
