<svg width="27" height="26" viewBox="0 0 27 26" fill="none" xmlns="http://www.w3.org/2000/svg">
<path d="M18.2114 6.83933L15.3247 5.17267L17.9457 0.633016L20.8324 2.29968L18.2114 6.83933ZM10.1681 20.3541L8.3639 19.3124L6.34777 22.8045L8.15199 23.8462L10.1681 20.3541ZM6.58542 7.80953L2.97698 5.72619L1.96892 7.47221L5.57735 9.55555L6.58542 7.80953ZM24.6276 18.2262L21.0192 16.1429L20.0111 17.8889L23.6196 19.9722L24.6276 18.2262ZM20.5054 23.0224L18.399 19.4666L16.62 20.452L18.7264 24.0078L20.5054 23.0224ZM26.4788 8.35324L24.6001 4.94055L19.294 7.46433L20.8118 10.6687L26.4788 8.35324ZM14.5673 25.0637L14.4888 20.9955L12.4219 20.9755L12.4959 25.0411L14.5673 25.0637ZM5.06307 13.7796L5.03243 11.7494L0.898928 11.7026L0.929567 13.7328L5.06307 13.7796ZM14.4014 5.1052L14.2525 0.363164L11.4614 0.614146L11.9129 5.06531L14.4014 5.1052ZM9.99099 5.24423L7.88521 1.6853L6.10492 2.66887L8.20749 6.22711L9.99099 5.24423ZM6.7106 17.6781L5.65891 15.8976L2.10193 17.8668L3.15271 19.6468L6.7106 17.6781Z" fill="#0600F2"/>
</svg>
