<svg width="30" height="40" viewBox="0 0 30 40" fill="none" xmlns="http://www.w3.org/2000/svg">
<path d="M26.7041 21.0344H13.5121C12.9444 21.0344 12.4841 20.5711 12.4841 19.9998C12.4841 19.4282 12.9444 18.965 13.5121 18.965H26.7034L22.3952 14.048C22.0208 13.6215 22.0603 12.9702 22.4837 12.5932C22.9074 12.2159 23.5545 12.2556 23.9291 12.6821L29.7429 19.3172C30.0908 19.7131 30.0817 20.3032 29.7393 20.6877L23.9288 27.3179C23.5545 27.7447 22.907 27.7844 22.4834 27.4068C22.06 27.0298 22.0205 26.3781 22.3948 25.9517L26.7041 21.0344ZM23.1406 32.4316C23.1406 31.86 23.6054 31.3967 24.1787 31.3967C24.7523 31.3967 25.2171 31.86 25.2171 32.4316V37.0677C25.2171 37.8734 24.8849 38.6071 24.3522 39.138C23.8187 39.6693 23.0824 40 22.2746 40H2.94284C2.13437 40 1.39776 39.6699 0.86433 39.1387C0.331882 38.6081 0 37.8753 0 37.0677V2.93264C0 2.12534 0.330902 1.39194 0.863677 0.860684C1.39645 0.329755 2.13241 0 2.94284 0H22.2743C23.0841 0 23.8197 0.330732 24.3525 0.861335C24.8859 1.39292 25.2168 2.1273 25.2168 2.93264V7.56842C25.2168 8.13972 24.752 8.60293 24.1784 8.60293C23.6051 8.60293 23.1403 8.13972 23.1403 7.56842V2.93264C23.1403 2.69761 23.0419 2.48179 22.8838 2.32424C22.7264 2.16734 22.5101 2.06935 22.274 2.06935H2.94284C2.70569 2.06935 2.48911 2.16701 2.33199 2.32391C2.17422 2.48049 2.07655 2.69631 2.07655 2.93264V37.0677C2.07655 37.3034 2.17487 37.5185 2.33232 37.6754C2.49042 37.833 2.70699 37.931 2.94284 37.931H22.2743C22.5095 37.931 22.7254 37.8327 22.8835 37.6751C23.0419 37.5176 23.1406 37.3021 23.1406 37.0677V32.4316Z" fill="#EF0000"/>
</svg>
