<svg width="18" height="14" viewBox="0 0 18 14" fill="none" xmlns="http://www.w3.org/2000/svg">
<path fill-rule="evenodd" clip-rule="evenodd" d="M0 4.375C0 1.95876 2.01472 0 4.5 0H13.5C15.9853 0 18 1.95876 18 4.375V9.625C18 12.0412 15.9853 14 13.5 14H4.5C2.01472 14 0 12.0412 0 9.625V4.375ZM4.5 1.75C3.00883 1.75 1.8 2.92526 1.8 4.375V9.625C1.8 11.0748 3.00883 12.25 4.5 12.25H13.5C14.9912 12.25 16.2 11.0748 16.2 9.625V4.375C16.2 2.92526 14.9912 1.75 13.5 1.75H4.5Z" fill="#03007C"/>
<path fill-rule="evenodd" clip-rule="evenodd" d="M3.79686 3.82839C4.10737 3.45103 4.67373 3.38985 5.06187 3.69173L7.31295 5.44258C8.29908 6.20952 9.7002 6.20952 10.6863 5.44258L12.9374 3.69173C13.3256 3.38985 13.892 3.45103 14.2025 3.82839C14.513 4.20574 14.45 4.75637 14.0619 5.05826L11.8108 6.80907C10.1673 8.08736 7.83198 8.08736 6.18851 6.80907L3.93742 5.05826C3.54928 4.75637 3.48635 4.20574 3.79686 3.82839Z" fill="#03007C"/>
</svg>
