<svg width="51" height="51" viewBox="0 0 51 51" fill="none" xmlns="http://www.w3.org/2000/svg">
<path d="M1.98345 0.914628L18.7778 0.359135C19.0171 0.34297 19.257 0.378658 19.4815 0.463811C19.706 0.548964 19.91 0.68162 20.0797 0.852907C29.7435 10.6104 39.4087 20.3679 49.0752 30.1253C49.4903 30.5534 49.8172 31.0607 50.0368 31.6176C50.2564 32.1745 50.3644 32.7701 50.3546 33.3696C50.3448 33.9691 50.2173 34.5606 49.9795 35.1099C49.7417 35.6591 49.3984 36.1551 48.9695 36.5691L36.3818 48.9668L36.2842 49.0697C35.8647 49.4925 35.3645 49.8244 34.814 50.0452C34.2635 50.2659 33.6743 50.3708 33.0823 50.3535C31.9663 50.3254 30.8987 49.8865 30.0799 49.1191L29.9293 48.9751L1.41387 19.7191C1.11583 19.4164 0.942752 19.0104 0.929733 18.5834L0.356088 2.67575C0.341811 2.22417 0.505058 1.78528 0.810076 1.4552C1.11509 1.12511 1.53702 0.930728 1.98345 0.914628ZM8.37085 5.44087C8.71921 5.43023 9.06608 5.49111 9.39053 5.61983C9.71498 5.74854 10.0103 5.94242 10.2586 6.18976C10.5182 6.43265 10.7271 6.72559 10.8732 7.05135C11.0192 7.37711 11.0993 7.72912 11.1089 8.08666C11.1155 8.79804 10.8445 9.48337 10.3548 9.99406C9.86513 10.5047 9.19614 10.7996 8.4929 10.8147C8.14356 10.8335 7.7942 10.7784 7.46708 10.653C7.13996 10.5276 6.84226 10.3346 6.59295 10.0864C6.33574 9.84551 6.13065 9.55331 5.99061 9.22826C5.85057 8.9032 5.77861 8.55233 5.77927 8.19776C5.76508 7.48173 6.03195 6.78919 6.52148 6.27172C7.011 5.75425 7.68329 5.45402 8.39119 5.43675L8.37085 5.44087Z" fill="#D62228"/>
<path d="M18.8876 2.06677L2.04443 2.62227L2.61808 18.5217L31.0969 47.7653C31.3532 48.0394 31.6611 48.2589 32.0025 48.4109C32.3439 48.5629 32.7119 48.6444 33.0849 48.6505C33.4578 48.6567 33.8282 48.5873 34.1743 48.4466C34.5204 48.3059 34.8352 48.0967 35.1002 47.8312L47.7814 35.3346C48.0533 35.0763 48.2711 34.7655 48.422 34.4205C48.5729 34.0755 48.6538 33.7034 48.6599 33.3262C48.6659 32.949 48.5971 32.5744 48.4574 32.2246C48.3177 31.8748 48.1099 31.5569 47.8465 31.2898L18.8876 2.06677Z" fill="#EE3239"/>
<path d="M8.37895 5.43675C8.72699 5.42581 9.07363 5.48615 9.39803 5.61413C9.72243 5.74212 10.0179 5.93511 10.2667 6.18152C10.5261 6.42547 10.7348 6.7192 10.8808 7.04558C11.0268 7.37195 11.1071 7.72446 11.117 8.08254C11.1246 8.79602 10.8531 9.48363 10.3615 9.99544C9.86993 10.5072 9.19824 10.8018 8.49287 10.8147C8.14343 10.8345 7.79378 10.7799 7.46651 10.6544C7.13924 10.529 6.84163 10.3355 6.59292 10.0864C6.33601 9.84613 6.13109 9.55463 5.99105 9.23028C5.85101 8.90594 5.77889 8.55578 5.77924 8.20187C5.76657 7.84327 5.82684 7.48587 5.95631 7.15179C6.08577 6.81772 6.28168 6.51408 6.5319 6.2597C6.76994 6.00154 7.05767 5.79536 7.37741 5.65384C7.69715 5.51231 8.04214 5.43843 8.39116 5.43675H8.37895Z" fill="white"/>
<path d="M9.47347 16.0569L11.6785 14.4727C11.7233 14.4366 11.7751 14.4105 11.8306 14.3961C11.886 14.3816 11.9439 14.3792 12.0003 14.3889C12.0568 14.3986 12.1106 14.4202 12.1582 14.4524C12.2058 14.4846 12.2461 14.5266 12.2766 14.5756L12.301 14.6085C12.5373 15.0108 12.7954 15.3995 13.074 15.773C13.3152 16.1001 13.5789 16.4095 13.8633 16.6988C14.1562 16.9951 14.4084 17.242 14.62 17.4354L14.9495 17.7234L14.9699 17.7028L14.2661 16.8511C13.8788 16.3972 13.5482 15.8969 13.2815 15.3615C13.0614 14.9329 12.9444 14.4578 12.9398 13.9749C12.9512 13.531 13.064 13.0959 13.2693 12.7034C13.4986 12.2627 13.7952 11.8614 14.1481 11.5142L14.1765 11.4895C14.6083 11.0372 15.1048 10.653 15.6493 10.3497C16.1004 10.0937 16.6135 9.97107 17.1302 9.99588C17.6485 10.0483 18.1474 10.2231 18.5867 10.5061C19.1427 10.8519 19.6539 11.2666 20.1083 11.7405L20.1327 11.7693C20.6193 12.2627 21.0797 12.7819 21.5119 13.3247C21.9161 13.8242 22.2884 14.3492 22.6266 14.8966C22.6874 14.9943 22.7074 15.1124 22.6823 15.225C22.6571 15.3376 22.5888 15.4355 22.4924 15.4973L20.4012 17.0404C20.3086 17.1074 20.1936 17.135 20.081 17.1173C19.9685 17.0997 19.8672 17.038 19.7991 16.9457C19.5143 16.5342 19.2458 16.1845 18.9854 15.8676V15.8388C18.7797 15.5821 18.5611 15.3363 18.3304 15.1023C18.1148 14.8842 17.9235 14.6908 17.7405 14.5303L17.5045 14.3493L18.0008 14.9542C18.4184 15.4508 18.7774 15.9949 19.0708 16.5754C19.3023 17.0334 19.4288 17.5383 19.4411 18.0526C19.442 18.5037 19.3433 18.9494 19.1522 19.357C18.9427 19.7919 18.659 20.1861 18.3141 20.5214C18.0765 20.7632 17.8208 20.9861 17.5493 21.188C17.3066 21.3694 17.0446 21.5226 16.7681 21.6448C16.5356 21.749 16.2947 21.833 16.048 21.8958C15.8271 21.9506 15.6001 21.9769 15.3727 21.974C15.1432 21.9691 14.9157 21.9303 14.6973 21.8587C14.4593 21.7806 14.2302 21.6771 14.0138 21.5501H13.9853C13.7738 21.4308 13.5785 21.3156 13.4117 21.1963C13.2392 21.0798 13.0735 20.9534 12.9153 20.8177C12.5573 20.505 12.2115 20.1635 11.8738 19.8219L11.8494 19.7972C11.3678 19.3112 10.9128 18.7988 10.4865 18.2624C10.0777 17.7512 9.69997 17.2153 9.35549 16.6577C9.29909 16.5631 9.27992 16.4505 9.30177 16.3423C9.32363 16.234 9.38491 16.138 9.47347 16.0734V16.0569ZM18.1351 25.7925L15.7225 23.3524C15.6819 23.3122 15.6497 23.2642 15.6277 23.2112C15.6057 23.1582 15.5943 23.1013 15.5943 23.0438C15.5943 22.9863 15.6057 22.9294 15.6277 22.8764C15.6497 22.8234 15.6819 22.7754 15.7225 22.7352C15.757 22.7002 15.7969 22.671 15.8405 22.6488L24.791 17.2996C24.8735 17.2523 24.969 17.2335 25.063 17.2462C25.157 17.2588 25.2443 17.3021 25.3118 17.3695L28.8472 20.9411C28.9197 21.0144 28.964 21.1114 28.9722 21.2147C28.9804 21.318 28.9519 21.4208 28.892 21.5049L23.603 30.5573C23.5446 30.6564 23.45 30.7282 23.3397 30.7575C23.2294 30.7867 23.1121 30.771 23.0131 30.7137C22.9821 30.6937 22.9535 30.6703 22.9277 30.6438L20.5151 28.2078C20.4424 28.1339 20.3979 28.0362 20.3897 27.9322C20.3815 27.8282 20.4101 27.7247 20.4704 27.64L21.1417 26.5496L19.7381 25.13L18.664 25.8706C18.5815 25.9225 18.4843 25.9451 18.3877 25.9346C18.2911 25.9242 18.2008 25.8814 18.131 25.813L18.1351 25.7925ZM28.2247 35.9971L23.6519 31.368C23.6113 31.3277 23.579 31.2797 23.557 31.2267C23.535 31.1737 23.5236 31.1168 23.5236 31.0594C23.5236 31.0019 23.535 30.945 23.557 30.892C23.579 30.839 23.6113 30.791 23.6519 30.7507L30.796 23.5252C30.8774 23.4443 30.987 23.399 31.1011 23.399C31.2153 23.399 31.3248 23.4443 31.4062 23.5252L33.6927 25.8377C33.7727 25.9201 33.8175 26.0309 33.8175 26.1463C33.8175 26.2618 33.7727 26.3726 33.6927 26.4549L28.6804 31.5243L30.6617 33.5282C30.7023 33.5684 30.7346 33.6165 30.7566 33.6694C30.7786 33.7224 30.7899 33.7793 30.7899 33.8368C30.7899 33.8943 30.7786 33.9512 30.7566 34.0042C30.7346 34.0572 30.7023 34.1052 30.6617 34.1454L28.835 35.9971C28.7536 36.078 28.644 36.1233 28.5299 36.1233C28.4157 36.1233 28.3062 36.078 28.2247 35.9971ZM36.3616 38.7869L34.3762 36.783L34.1199 37.0422L36.6179 39.5687C36.6979 39.651 36.7427 39.7618 36.7427 39.8773C36.7427 39.9927 36.6979 40.1036 36.6179 40.1859L34.7871 42.0375C34.7057 42.1185 34.5961 42.1638 34.482 42.1638C34.3678 42.1638 34.2582 42.1185 34.1768 42.0375L29.1076 36.89C29.0276 36.8076 28.9828 36.6968 28.9828 36.5814C28.9828 36.4659 29.0276 36.3551 29.1076 36.2728L36.2558 29.0472C36.3372 28.9663 36.4468 28.921 36.5609 28.921C36.6751 28.921 36.7846 28.9663 36.866 29.0472L41.8946 34.1331C41.9352 34.1733 41.9674 34.2213 41.9894 34.2743C42.0115 34.3273 42.0228 34.3842 42.0228 34.4417C42.0228 34.4992 42.0115 34.5561 41.9894 34.6091C41.9674 34.6621 41.9352 34.7101 41.8946 34.7503C41.869 34.777 41.8403 34.8005 41.8092 34.8202L39.7261 36.3551C39.6454 36.4198 39.5434 36.4511 39.4407 36.4427C39.338 36.4343 39.2422 36.3868 39.1728 36.3098L37.0166 34.1372L36.6667 34.4911L38.648 36.495C38.728 36.5773 38.7728 36.6881 38.7728 36.8036C38.7728 36.919 38.728 37.0298 38.648 37.1122L36.9922 38.7869C36.9108 38.8678 36.8012 38.9131 36.687 38.9131C36.5729 38.9131 36.4633 38.8678 36.3819 38.7869H36.3616Z" fill="#D62228"/>
<path d="M9.71338 16.4067L11.9185 14.8225C12.372 15.6132 12.9184 16.3454 13.5458 17.0033C14.0026 17.4698 14.4892 17.9055 15.0023 18.3077L15.5719 17.7275L14.6361 16.596C13.7764 15.57 13.356 14.6991 13.3749 13.9831C13.4465 13.1502 13.8361 12.3782 14.4612 11.8311C15.4376 10.8435 16.3205 10.3827 17.1097 10.4403C17.899 10.4979 18.79 11.0575 19.803 12.0615C20.7358 12.9856 21.5616 14.0141 22.2644 15.127L20.1488 16.6865C19.686 16.017 19.1732 15.3842 18.6151 14.7937C18.257 14.4217 17.8751 14.0739 17.4718 13.7527L16.9104 14.3164L17.6549 15.2299C18.5527 16.3409 19.0043 17.2804 19.0097 18.0485C18.9975 18.4598 18.9024 18.8642 18.7304 19.2371C18.5583 19.61 18.3128 19.9434 18.0089 20.217C17.6056 20.6467 17.1269 20.9969 16.5971 21.2498C16.2164 21.4372 15.7999 21.5383 15.3766 21.546C14.9674 21.5197 14.5707 21.3926 14.2212 21.1757C13.8559 20.9746 13.5111 20.7375 13.1919 20.468C12.9274 20.2375 12.5857 19.9166 12.1748 19.4969C11.239 18.5664 10.4131 17.5295 9.71338 16.4067ZM18.4401 25.4839L16.0275 23.0438L25.0228 17.6946L28.5582 21.2662L23.2693 30.364L20.8527 27.928L21.7192 26.5167L19.8315 24.6074L18.4401 25.488V25.4839ZM24.4532 21.5501L22.061 23.1961L23.1147 24.2618L24.7421 21.8505L24.4654 21.5666L24.4532 21.5501ZM28.5216 35.6885L23.9528 31.0594L31.101 23.8338L33.3874 26.1463L28.07 31.5243L30.3565 33.8368L28.5298 35.6885H28.5216ZM36.6584 38.4783L34.4005 36.1576L33.5298 37.0381L36.3289 39.8608L34.5022 41.7125L29.4126 36.569L36.5649 29.3559L41.5934 34.4417L39.4778 36.0053L37.0368 33.5364L36.0563 34.5116L38.3427 36.8241L36.6869 38.4783H36.6584Z" fill="white"/>
</svg>
