<svg width="15" height="8" viewBox="0 0 15 8" fill="none" xmlns="http://www.w3.org/2000/svg">
<path d="M0.553246 0.0965543C0.427376 -0.031683 0.222178 -0.0322828 0.0954289 0.0953555C0.0653138 0.125566 0.0413683 0.161604 0.0249856 0.201374C0.00860289 0.241143 0.00011002 0.28385 1.06187e-06 0.327011C-0.000107896 0.370171 0.00816923 0.412922 0.0243509 0.452778C0.0405326 0.492634 0.0642958 0.528798 0.094258 0.559167L7.27063 7.90345C7.3965 8.03168 7.6017 8.03228 7.72845 7.90464L14.906 0.559167C15.0319 0.43093 15.0313 0.222993 14.9045 0.0953555C14.7778 -0.0322828 14.5729 -0.031683 14.447 0.0965543L7.50013 7.20593L0.553246 0.0965543Z" fill="black"/>
</svg>
