<svg width="21" height="16" viewBox="0 0 21 16" fill="none" xmlns="http://www.w3.org/2000/svg">
<path d="M19.3962 5.63667C18.1037 3.53167 15.1637 0 10.0037 0C4.84371 0 1.9037 3.53167 0.611205 5.63667C0.211645 6.28292 0 7.0277 0 7.7875C0 8.5473 0.211645 9.29208 0.611205 9.93833C1.9037 12.0433 4.84371 15.575 10.0037 15.575C15.1637 15.575 18.1037 12.0433 19.3962 9.93833C19.7958 9.29208 20.0074 8.5473 20.0074 7.7875C20.0074 7.0277 19.7958 6.28292 19.3962 5.63667ZM17.9754 9.06583C16.8654 10.8708 14.3529 13.9083 10.0037 13.9083C5.65454 13.9083 3.14204 10.8708 2.03204 9.06583C1.79465 8.6817 1.66891 8.23906 1.66891 7.7875C1.66891 7.33594 1.79465 6.8933 2.03204 6.50917C3.14204 4.70417 5.65454 1.66667 10.0037 1.66667C14.3529 1.66667 16.8654 4.70083 17.9754 6.50917C18.2128 6.8933 18.3385 7.33594 18.3385 7.7875C18.3385 8.23906 18.2128 8.6817 17.9754 9.06583Z" fill="black"/>
<path d="M10.0026 3.62085C9.17852 3.62085 8.37293 3.86522 7.68773 4.32306C7.00253 4.7809 6.46847 5.43164 6.15311 6.193C5.83774 6.95436 5.75523 7.79214 5.916 8.60039C6.07677 9.40865 6.47361 10.1511 7.05633 10.7338C7.63905 11.3165 8.38148 11.7134 9.18973 11.8741C9.99798 12.0349 10.8358 11.9524 11.5971 11.637C12.3585 11.3217 13.0092 10.7876 13.4671 10.1024C13.9249 9.41719 14.1693 8.61161 14.1693 7.78752C14.1679 6.68285 13.7285 5.62381 12.9474 4.8427C12.1663 4.06158 11.1073 3.62217 10.0026 3.62085ZM10.0026 10.2875C9.50815 10.2875 9.0248 10.1409 8.61368 9.86619C8.20256 9.59149 7.88213 9.20104 7.69291 8.74423C7.50369 8.28741 7.45418 7.78474 7.55064 7.29979C7.64711 6.81484 7.88521 6.36938 8.23484 6.01975C8.58447 5.67012 9.02993 5.43202 9.51488 5.33555C9.99983 5.23909 10.5025 5.2886 10.9593 5.47782C11.4161 5.66704 11.8066 5.98747 12.0813 6.39859C12.356 6.80971 12.5026 7.29306 12.5026 7.78752C12.5026 8.45056 12.2392 9.08644 11.7704 9.55528C11.3015 10.0241 10.6656 10.2875 10.0026 10.2875Z" fill="black"/>
</svg>
