<svg width="60" height="60" viewBox="0 0 60 60" fill="none" xmlns="http://www.w3.org/2000/svg">
<path d="M40 58.285C36.87 59.395 33.505 60 30 60C26.495 60 23.13 59.395 20 58.285V52.5C20 46.985 24.485 42.5 30 42.5C35.515 42.5 40 46.985 40 52.5V58.285ZM30 17.5C27.2425 17.5 25 19.7425 25 22.5C25 25.2575 27.2425 27.5 30 27.5C32.7575 27.5 35 25.2575 35 22.5C35 19.7425 32.7575 17.5 30 17.5ZM60 30C60 41.0825 53.96 50.7775 45 55.9725V52.5C45 44.2275 38.2725 37.5 30 37.5C21.7275 37.5 15 44.2275 15 52.5V55.9725C6.04 50.7775 0 41.0825 0 30C0 13.4575 13.4575 0 30 0C46.5425 0 60 13.4575 60 30ZM40 22.5C40 16.985 35.515 12.5 30 12.5C24.485 12.5 20 16.985 20 22.5C20 28.015 24.485 32.5 30 32.5C35.515 32.5 40 28.015 40 22.5Z" fill="black"/>
</svg>
